# xmcd CD database file
#
# Track frame offsets:
#	150
#	28897
#	52861
#	72407
#	102548
#	114214
#	144666
#	165967
#	194301
#	216057
#	242669
#	276461
#
# Disc length: 4080 seconds
#
# Revision: 0
# Processed by: cddbd v1.5.2PL0 Copyright (c) Steve Scherf et al.
# Submitted via: CDex 1.70beta2
#
DISCID=ad0fee0c
DTITLE=Ulil's New Orleans Jazz Band - Live At Schwärzwälder Hof Freiburg
DYEAR=2017
DGENRE=Jazz
TTITLE0=When You And I Were Young, Maggie
TTITLE1=St. James Infirmary
TTITLE2=Joseph, Joseph
TTITLE3=Just A Little While To Stay Here
TTITLE4=Deep Ellem Blues
TTITLE5=When Your Hair Has Turned To Silver
TTITLE6=Blues, Stay Away Frim Me
TTITLE7=The Old Rugged Cross
TTITLE8=Beautiful Dreamer
TTITLE9=Crinne, Corinna
TTITLE10=Rosetta
TTITLE11=Goin' Home
EXTD=YEAR: 2017
EXTT0=
EXTT1=
EXTT2=
EXTT3=
EXTT4=
EXTT5=
EXTT6=
EXTT7=
EXTT8=
EXTT9=
EXTT10=
EXTT11=
PLAYORDER=
